<?xml version="1.0" encoding="UTF-8"?>
<svg id="Layer_1" data-name="Layer 1" xmlns="http://www.w3.org/2000/svg" viewBox="0 0 278.59 238.25">
  <defs>
    <style>
      .cls-1 {
        fill: #f7f8fb;
      }
    </style>
  </defs>
  <path class="cls-1" d="M278.59,74.56v94.38h-74.14v-26.81h39.93v-67.57c0-9.12-.99-16.95-2.95-23.47-1.97-6.53-5.43-11.53-10.38-14.99-4.96-3.46-11.84-5.19-20.65-5.19s-15.73,1.73-20.76,5.19c-5.04,3.46-8.54,8.46-10.5,14.99-1.97,6.52-2.95,14.35-2.95,23.47v89.13c0,15.57-2.28,28.9-6.84,39.99-4.57,11.09-11.84,19.62-21.83,25.6s-23.16,8.97-39.52,8.97-29.77-2.99-39.75-8.97c-9.99-5.98-17.27-14.51-21.83-25.6-4.56-11.09-6.84-24.42-6.84-39.99v-65.81H0v-26.81h73.79v92.62c0,9.12.98,16.95,2.95,23.47,1.96,6.53,5.46,11.53,10.5,14.99,5.03,3.46,11.95,5.19,20.76,5.19s15.69-1.73,20.65-5.19c4.95-3.46,8.41-8.46,10.38-14.99,1.96-6.52,2.95-14.35,2.95-23.47v-89.13c0-1.18.01-2.34.05-3.49.31-14.08,2.57-26.25,6.79-36.5,4.56-11.09,11.83-19.62,21.83-25.6,9.98-5.98,23.24-8.97,39.75-8.97s29.53,2.99,39.52,8.97c9.99,5.98,17.26,14.51,21.83,25.6,4.56,11.09,6.84,24.42,6.84,39.99Z"/>
</svg>